<mxfile host="65bd71144e">
    <diagram id="YexiHTGuidN_SMg85NXR" name="Page-1">
        <mxGraphModel dx="1242" dy="809" grid="1" gridSize="10" guides="1" tooltips="1" connect="1" arrows="1" fold="1" page="1" pageScale="1" pageWidth="850" pageHeight="1100" math="0" shadow="0">
            <root>
                <mxCell id="0"/>
                <mxCell id="1" parent="0"/>
                <mxCell id="2" value="auth" style="shape=umlFrame;whiteSpace=wrap;html=1;width=100;height=30;" vertex="1" parent="1">
                    <mxGeometry x="40" y="80" width="770" height="560" as="geometry"/>
                </mxCell>
                <mxCell id="3" value="Signin" style="shape=umlFrame;whiteSpace=wrap;html=1;width=100;height=30;fillColor=#60a917;fontColor=#ffffff;strokeColor=#2D7600;" vertex="1" parent="1">
                    <mxGeometry x="50" y="120" width="210" height="510" as="geometry"/>
                </mxCell>
                <mxCell id="5" value="Entreprise picture" style="shape=umlFrame;whiteSpace=wrap;html=1;width=130;height=30;fillColor=#0050ef;fontColor=#ffffff;strokeColor=#001DBC;" vertex="1" parent="1">
                    <mxGeometry x="280" y="120" width="520" height="510" as="geometry"/>
                </mxCell>
                <mxCell id="8" value="Providers Logins" style="shape=umlFrame;whiteSpace=wrap;html=1;width=150;height=30;fillColor=#1ba1e2;fontColor=#ffffff;strokeColor=#006EAF;" vertex="1" parent="1">
                    <mxGeometry x="60" y="220" width="190" height="120" as="geometry"/>
                </mxCell>
                <mxCell id="9" value="Email Password Login" style="shape=umlFrame;whiteSpace=wrap;html=1;width=150;height=30;fillColor=#e51400;fontColor=#ffffff;strokeColor=#B20000;" vertex="1" parent="1">
                    <mxGeometry x="60" y="360" width="190" height="250" as="geometry"/>
                </mxCell>
                <mxCell id="10" value="Auth Plan" style="shape=partialRectangle;html=1;top=1;align=left;dashed=1;" vertex="1" parent="1">
                    <mxGeometry x="20" y="20" width="820" height="20" as="geometry"/>
                </mxCell>
                <mxCell id="11" value="Antoine Fusilier - Remise Projet 2023 - 3W Academy - DÃ©veloppeur FullStack Web et Mobile" style="shape=partialRectangle;html=1;top=1;align=left;dashed=1;" vertex="1" parent="1">
                    <mxGeometry x="15" y="660" width="820" height="20" as="geometry"/>
                </mxCell>
            </root>
        </mxGraphModel>
    </diagram>
</mxfile>
